<svg xmlns="http://www.w3.org/2000/svg" viewBox="0 0 116.13 103.65"><defs><style>.cls-1{fill:#231f20;}</style></defs><g id="fun"><path class="cls-1" d="M81.42,59.38c3.36,6.95,4,12.41,1.67,14.7a4.32,4.32,0,0,1-.79.6L80,75.39c-6.56.75-19.77-5.69-32.92-18.84-7.36-7.36-13.18-15.33-16.4-22.45-1.91-4.25-2.73-7.92-2.41-10.53L29,21.35a4.08,4.08,0,0,1,.6-.8,5.74,5.74,0,0,1,4.17-1.36,22.82,22.82,0,0,1,8.47,2.1,28.31,28.31,0,0,1,1.62-3.66c-7.7-3.26-13.74-3.25-17.09.09-.19.2-.37.4-.54.61a2,2,0,0,0-.81,1.07l-.12.39a9.88,9.88,0,0,0-.91,2.92L17,46.31v0L7.36,77.57a1.9,1.9,0,0,0-.31,1l-7,22.48h0a2.7,2.7,0,0,0-.08.39v.39a2.24,2.24,0,0,0,.08.39h0v0a2.13,2.13,0,0,0,.25.5l.06.09a2.28,2.28,0,0,0,.38.38l.1.07a2.12,2.12,0,0,0,.45.23l.06,0h0a2.26,2.26,0,0,0,.57.09H2a2.33,2.33,0,0,0,.57-.09h0L57.77,86.46a1.88,1.88,0,0,0,1-.3L80.89,79.3a9.7,9.7,0,0,0,3-.92l.37-.12a2,2,0,0,0,1.06-.8c.22-.18.42-.36.62-.55,3.82-3.82,3.19-11-1-19.58A15,15,0,0,1,81.42,59.38ZM27.05,35.75c3.4,7.54,9.52,15.94,17.21,23.63,9.44,9.44,19.21,16,27.18,18.66L57.72,82.29C50.8,79,43.14,73.35,36,66.26A86.49,86.49,0,0,1,21.1,46.73l4.52-14.59C26,33.3,26.48,34.5,27.05,35.75ZM41.92,87.19a1.49,1.49,0,0,0-.3-.18A54.3,54.3,0,0,1,26.51,76,57.9,57.9,0,0,1,16.23,62.44l3.26-10.5A95.25,95.25,0,0,0,33.21,69.09,91.92,91.92,0,0,0,52.29,84Zm-16.18,5,0,0a31.86,31.86,0,0,1-8.83-6.46,35,35,0,0,1-5.61-7.18l3.37-10.89a66.37,66.37,0,0,0,9.06,11.15A63.84,63.84,0,0,0,36.52,88.86Zm-16-8.71A44.38,44.38,0,0,0,14,88.54a41.41,41.41,0,0,0,6.45,5.29L5,98.62Z"/><path class="cls-1" d="M46.37,49a2,2,0,0,0,3.71-1.51c-.4-1-9.49-23.92,7-33.87,3.93-2.38,7.25-3.07,10-2.87a17.84,17.84,0,0,0-.47,14.58c2.08,5,6,7.48,10,6.37a8.06,8.06,0,0,0,5.9-6.77c.89-5.46-2.23-12-7.42-15.48a15.85,15.85,0,0,0-1.47-.88,15.59,15.59,0,0,1,2.72-2c5.37-3.07,11.09-3.45,15.31-1,2.22,1.29,3.61,3.2,3.61,5,0,1.35-.58,2.17-1.13,2.26s-1.1-.59-1.46-1.67a2,2,0,1,0-3.8,1.24c1.22,3.73,3.94,4.69,5.89,4.38,2.65-.42,4.5-3,4.5-6.21s-2.1-6.41-5.6-8.44C88.16-1,80.94-.66,74.32,3.13a18.82,18.82,0,0,0-4.85,3.94c-3.69-.78-8.6-.44-14.5,3.13C35.59,21.92,46.26,48.73,46.37,49ZM71,11.75a12.4,12.4,0,0,1,1.81,1c4.28,2.89,6.26,8.12,5.71,11.51a4.05,4.05,0,0,1-3,3.57c-2.37.65-4.32-1.77-5.27-4.06A14.1,14.1,0,0,1,71,11.75Z"/><path class="cls-1" d="M78.15,45.45c-.38-3.45-2.49-5.74-5.28-5.74h-.1A5.67,5.67,0,0,0,68,42.4a9.8,9.8,0,0,0-.41,8.91,10.27,10.27,0,0,0,2.51,3.55,18,18,0,0,1-8.63,4,2,2,0,0,0,.39,4,2.72,2.72,0,0,0,.39,0,21.23,21.23,0,0,0,11.44-5.88,9.24,9.24,0,0,0,1.18.29c3.46.62,7-.71,9.85-3.75a13.13,13.13,0,0,0,2.84-5.66l-.08-.49-3.43-1.85c-.55,2.08-1.08,4-2.23,5.24a7.41,7.41,0,0,1-5.52,2.65A14,14,0,0,0,78.15,45.45ZM72.7,51.76a6.29,6.29,0,0,1-1.39-2,5.94,5.94,0,0,1,.09-5.18,1.67,1.67,0,0,1,1.44-.86h0c1,0,1.28,1.95,1.31,2.17A9.84,9.84,0,0,1,72.7,51.76Z"/><path class="cls-1" d="M115.77,27.4a2,2,0,0,0-1.91-.83L103.26,28,95.74,20.4a2,2,0,0,0-3.39,1.05L90.45,32l-9.56,4.8a2,2,0,0,0,0,3.55l9.42,5.07L91.88,56a2,2,0,0,0,1.33,1.59,1.8,1.8,0,0,0,.64.11,2,2,0,0,0,1.39-.55l7.72-7.4,10.56,1.73a2,2,0,0,0,2.13-2.84L111,39l4.91-9.5A2,2,0,0,0,115.77,27.4ZM107,39.81l3.41,7.07-7.74-1.27a2,2,0,0,0-1.71.53l-5.67,5.42L94.07,43.8a2,2,0,0,0-1-1.46l-6.92-3.71,7-3.52a2,2,0,0,0,1.07-1.43L95.6,26l5.52,5.59a2,2,0,0,0,1.69.57l7.78-1.06L107,38A2,2,0,0,0,107,39.81Z"/><path class="cls-1" d="M50.94,38.64a2,2,0,0,0,1.79,1l4.13-.09,2.55,3.25A2,2,0,0,0,61,43.6a2.31,2.31,0,0,0,.37,0,2,2,0,0,0,1.54-1.39l1.2-4L68,36.81a2,2,0,0,0,.45-3.52L65,30.94l-.15-4.13a2,2,0,0,0-3.21-1.52l-3.28,2.5-4-1.13A2,2,0,0,0,52,29.24l1.36,3.9L51,36.56A2,2,0,0,0,50.94,38.64Zm6.5-5.87L57,31.56l1.22.35A2,2,0,0,0,60,31.58l1-.77,0,1.27a2,2,0,0,0,.86,1.57l1,.73-1.2.44a2,2,0,0,0-1.23,1.3l-.36,1.22-.79-1a2,2,0,0,0-1.57-.76h0l-1.27,0,.71-1.06A2,2,0,0,0,57.44,32.77Z"/></g></svg>