<svg xmlns="http://www.w3.org/2000/svg" viewBox="0 0 91.07 103.64"><defs><style>.cls-1{fill:#231f20;}</style></defs><g id="fun"><path class="cls-1" d="M89.07,31.17H2a2,2,0,0,0-2,2V49.23a2,2,0,0,0,2,2H3.64v50.41a2,2,0,0,0,2,2H85.42a2,2,0,0,0,2-2V51.23h1.65a2,2,0,0,0,2-2V33.17A2,2,0,0,0,89.07,31.17ZM7.64,51.23H30.27a2,2,0,1,0,0-4H4V35.17H34.66V99.64h-27Zm31,48.41V35.17H52.41V99.64Zm44.76,0h-27V35.17H87.07V47.23H60.8a2,2,0,0,0,0,4H83.42Z"/><path class="cls-1" d="M20.89,29.08H70.18a11.26,11.26,0,1,0-7-20l-.06.06L50.43,20.15l3.28-8.31a2,2,0,0,0,.08-.22,8.88,8.88,0,0,0,.49-2.87,8.75,8.75,0,1,0-17.49,0,8.94,8.94,0,0,0,.49,2.88,1.8,1.8,0,0,0,.08.21l3.28,8.31L28,9.09,27.91,9a11.25,11.25,0,1,0-7,20Zm44.8-16.95a7.17,7.17,0,0,1,4.49-1.56,7.26,7.26,0,0,1,0,14.51H50.86ZM45.53,4a4.75,4.75,0,0,1,4.75,4.75A4.64,4.64,0,0,1,50,10.41l0,.13-4.4,11.1-4.39-11.1s0-.09,0-.13a4.64,4.64,0,0,1-.31-1.66A4.75,4.75,0,0,1,45.53,4ZM20.89,10.57a7.17,7.17,0,0,1,4.49,1.56L40.2,25.08H20.89a7.26,7.26,0,0,1,0-14.51Z"/></g></svg>