<svg xmlns="http://www.w3.org/2000/svg" viewBox="0 0 90.34 103.7"><defs><style>.cls-1{fill:#231f20;}</style></defs><g id="dexterity"><path class="cls-1" d="M89.34,25.19,46.17.27a2,2,0,0,0-2,0L1,25.19a2,2,0,0,0-1,1.74V76.77a2,2,0,0,0,1,1.74l43.17,24.92a2,2,0,0,0,2,0L89.34,78.51a2,2,0,0,0,1-1.74V26.93A2,2,0,0,0,89.34,25.19Zm-3,50.43L45.17,99.39,4,75.62V28.08L45.17,4.31,86.34,28.08Z"/><path class="cls-1" d="M43.17,10.38V23.31a2,2,0,0,0,.34,1.12,2.56,2.56,0,0,0,.57.56l4.21,2.73A2,2,0,0,0,51,27.25a5.06,5.06,0,0,1,4.16-1.93A8.28,8.28,0,0,1,62.89,32,5.31,5.31,0,0,1,61.8,36.4a5.14,5.14,0,0,1-4,1.72,8.24,8.24,0,0,1-7.37-5.28,2,2,0,0,0-.78-1l-3.39-2.22-.1-.05-.24-.13-.17-.05-.2-.06-.23,0h-.17l-.23,0a2,2,0,0,0-.77.26l-.1.06a3.15,3.15,0,0,0-.3.24l-.06.08-.19.23h0s0,.08-.06.11a2.53,2.53,0,0,0-.12.23,1.06,1.06,0,0,0-.06.19,1.21,1.21,0,0,0,0,.18,2.6,2.6,0,0,0,0,.26s0,.08,0,.13v0h0V50.69l-13.3,7.68a12.17,12.17,0,0,0,.56-12.59,9,9,0,0,0-6.22-4.54,9.24,9.24,0,0,0-7.58,2.06,12.15,12.15,0,0,0-2.88,15.19,9.27,9.27,0,0,0,4.88,4.16l-.11,2.28L8.26,70.85a2,2,0,1,0,2,3.46l11.2-6.46a2,2,0,0,0,.8-.86,2.51,2.51,0,0,0,.19-.77l.26-5A2,2,0,0,0,21,59.12a5,5,0,0,1-3.76-2.63,8.28,8.28,0,0,1,1.94-10.08,5.33,5.33,0,0,1,4.33-1.24A5.16,5.16,0,0,1,27,47.78a8.25,8.25,0,0,1-.89,9A2,2,0,0,0,25.63,58l-.22,4v.13a1.18,1.18,0,0,0,0,.26,1,1,0,0,0,0,.17,1.66,1.66,0,0,0,.06.21,1.89,1.89,0,0,0,.09.21l.06.14h0a1.33,1.33,0,0,0,.14.19,1.93,1.93,0,0,0,.61.53.33.33,0,0,0,.1.06,1.92,1.92,0,0,0,.36.14H27a1.47,1.47,0,0,0,.29,0h.4l.19,0a.77.77,0,0,0,.19-.05.94.94,0,0,0,.23-.1l.11,0,0,0h0l16.74-9.66,13.3,7.67a12.2,12.2,0,0,0-11.19,5.82,9.05,9.05,0,0,0-.81,7.66A9.21,9.21,0,0,0,52,80.84a12.15,12.15,0,0,0,14.59-5.1,9.23,9.23,0,0,0,1.16-6.31l2-1,10.26,5.92a2,2,0,1,0,2-3.46l-11.2-6.47a2,2,0,0,0-1.14-.26,2.36,2.36,0,0,0-.77.22l-4.46,2.28a2,2,0,0,0-.94,2.55,5.07,5.07,0,0,1-.4,4.57,8.29,8.29,0,0,1-9.7,3.36A5.28,5.28,0,0,1,50.24,74a5.13,5.13,0,0,1,.5-4.32A8.27,8.27,0,0,1,59,65.91a2.07,2.07,0,0,0,1.22-.19l3.61-1.83.1-.07a1,1,0,0,0,.22-.14.74.74,0,0,0,.13-.12,1.06,1.06,0,0,0,.15-.15s.09-.12.14-.18l.09-.12v0a2,2,0,0,0,.1-.21,2,2,0,0,0,.16-.8V62a2.32,2.32,0,0,0-.06-.38,1,1,0,0,0,0-.1,1.09,1.09,0,0,0-.11-.27v0a.86.86,0,0,0-.07-.1,1,1,0,0,0-.14-.22l-.13-.14a.86.86,0,0,0-.13-.14L64,60.44l-.1-.07h0L47.17,50.69V35.34A12.19,12.19,0,0,0,57.8,42.12a9.08,9.08,0,0,0,7-3.12,9.28,9.28,0,0,0,2-7.59A12.15,12.15,0,0,0,55.13,21.32a9.24,9.24,0,0,0-6.05,2.15l-1.91-1.24V10.38a2,2,0,0,0-4,0Z"/></g></svg>