<svg xmlns="http://www.w3.org/2000/svg" viewBox="0 0 112.76 103.64"><defs><style>.cls-1{fill:#231f20;}</style></defs><g id="communication"><path class="cls-1" d="M54.49,71a20.42,20.42,0,0,0,40.84,0,2,2,0,0,0-2-2H56.49A2,2,0,0,0,54.49,71Zm36.72,2a16.42,16.42,0,0,1-32.6,0Z"/><path class="cls-1" d="M74.91,27.94a38.15,38.15,0,0,0-7.21.7v4.09A33.88,33.88,0,1,1,42,57.74L38.63,55a37.47,37.47,0,0,0-1.57,10.75A37.85,37.85,0,1,0,74.91,27.94Z"/><path class="cls-1" d="M50.29,59.89a2.09,2.09,0,0,0,.88-.2,2,2,0,0,0,1.12-1.8v-11h2.94A9.48,9.48,0,0,0,64.7,37.4V9.47A9.48,9.48,0,0,0,55.23,0H9.47A9.48,9.48,0,0,0,0,9.47V37.4a9.48,9.48,0,0,0,9.47,9.47H33.12L49.05,59.46A2,2,0,0,0,50.29,59.89Zm-2-15v8.89L35.05,43.3a2,2,0,0,0-1.24-.43H9.47A5.48,5.48,0,0,1,4,37.4V9.47A5.47,5.47,0,0,1,9.47,4H55.23A5.47,5.47,0,0,1,60.7,9.47V37.4a5.48,5.48,0,0,1-5.47,5.47H50.29A2,2,0,0,0,48.29,44.87Z"/><path class="cls-1" d="M48.19,16H15.36a2,2,0,1,0,0,4H48.19a2,2,0,1,0,0-4Z"/><path class="cls-1" d="M48.19,26.69H15.36a2,2,0,1,0,0,4H48.19a2,2,0,0,0,0-4Z"/><path class="cls-1" d="M64.08,55.81a2.22,2.22,0,0,0-.43-.23,2.44,2.44,0,0,0-.46-.14,2.49,2.49,0,0,0-1,0,2.54,2.54,0,0,0-.47.14,2.22,2.22,0,0,0-.43.23,2.33,2.33,0,0,0-.38.31,2.5,2.5,0,0,0,1.77,4.27,2.5,2.5,0,0,0,1.77-4.27A3,3,0,0,0,64.08,55.81Z"/><path class="cls-1" d="M85,59.28a2.43,2.43,0,0,0,.69.69,2.43,2.43,0,0,0,.9.37,2.43,2.43,0,0,0,1,0,2.43,2.43,0,0,0,.9-.37,2.43,2.43,0,0,0,.69-.69,3.55,3.55,0,0,0,.23-.43,2.79,2.79,0,0,0,.14-.47,2.72,2.72,0,0,0,.05-.49,2.55,2.55,0,0,0-.73-1.77,2.85,2.85,0,0,0-.38-.31,2.43,2.43,0,0,0-.9-.37,2.31,2.31,0,0,0-1,0,2.43,2.43,0,0,0-.9.37,2.85,2.85,0,0,0-.38.31,2.55,2.55,0,0,0-.73,1.77,2.72,2.72,0,0,0,0,.49,2.79,2.79,0,0,0,.14.47A2.55,2.55,0,0,0,85,59.28Z"/></g></svg>