<svg id="non-toxic" xmlns="http://www.w3.org/2000/svg" viewBox="0 0 84.53 103.64"><defs><style>.cls-1{fill:#231f20;}</style></defs><path class="cls-1" d="M35.56,65.65V23.48a2,2,0,0,0-4,0V47.63L20.27,36.34a2,2,0,1,0-2.83,2.82L31.56,53.29V73.48A39.34,39.34,0,0,1,35.56,65.65Z"/><path class="cls-1" d="M4,50.84A51.69,51.69,0,0,1,33.56,4.2,51.71,51.71,0,0,1,63.07,48.52c1.32-.17,2.65-.27,4-.31A55.71,55.71,0,0,0,34.39.18a2,2,0,0,0-1.65,0,55.55,55.55,0,0,0-1.17,100.76A38.35,38.35,0,0,1,30,95.6,51.68,51.68,0,0,1,4,50.84Z"/><path class="cls-1" d="M82.17,54.2A2,2,0,0,0,81,53a36.52,36.52,0,0,0-47.09,47.09,2,2,0,0,0,1.17,1.16A36.51,36.51,0,0,0,82.17,54.2ZM71,90.13a32.58,32.58,0,0,1-31.5,8.38L46.08,92h7.15a2,2,0,1,0,0-4H50.08l5.19-5.2h0L67.64,70.4a2,2,0,0,0-2.83-2.83l-9,9V67.94a2,2,0,0,0-4,0V80.52l-8,8h0l-7.14,7.14A32.51,32.51,0,0,1,78.74,56.47,32.6,32.6,0,0,1,71,90.13Z"/></svg>