<svg xmlns="http://www.w3.org/2000/svg" viewBox="0 0 99.43 103.7"><defs><style>.cls-1{fill:#231f20;}</style></defs><g id="imagination"><path class="cls-1" d="M99.12,40.3a15.53,15.53,0,0,0-8.2-11.65C92,18.1,85.61,8.43,76.14,6.7A15.42,15.42,0,0,0,70,6.76C68.43,4.64,64.51.64,56.52.06A17.26,17.26,0,0,0,44.36,3.38,19.84,19.84,0,0,0,29.09,2,17.68,17.68,0,0,0,19,9.61a18.07,18.07,0,0,0-13.17,9A16.66,16.66,0,0,0,4.25,30.08c-3,3-4.66,8.09-4.16,13.08A17,17,0,0,0,7.92,56,20.12,20.12,0,0,0,19,59.12a30.21,30.21,0,0,0,9.8-1.77,27.88,27.88,0,0,0-.94,7.18,2,2,0,0,0,4,0A22,22,0,0,1,44.11,44.36a26,26,0,0,1,15.71-2,2,2,0,0,0,2.3-1.49,40.07,40.07,0,0,0,1.1-8.14,18.86,18.86,0,0,0-2.25-8,2,2,0,0,0-3.5,1.94,14.92,14.92,0,0,1,1.75,6,31,31,0,0,1-.61,5.41,31.07,31.07,0,0,0-9.31.33,21.36,21.36,0,0,1-.06-2.5,8.53,8.53,0,0,1,.53-3.13h0a2,2,0,0,0-.25-2.32,10.48,10.48,0,0,1-2.09-4.29c0-.09-1.62-8.77,8.11-11.34A12.94,12.94,0,0,1,69.89,20c1,1.61,1.17,4.7,1.16,5.75a2,2,0,0,0,.9,1.68A8.75,8.75,0,0,1,75.38,33a12.48,12.48,0,0,1-.9,5.76,19.39,19.39,0,0,0-1.93.43A14.15,14.15,0,0,0,66,43.31,2,2,0,1,0,69,46a10.35,10.35,0,0,1,4.72-3,11.17,11.17,0,0,1,11.18,3,2,2,0,1,0,3-2.63,15.54,15.54,0,0,0-9.13-4.71,15.54,15.54,0,0,0,.62-6.16A12.56,12.56,0,0,0,75,24.77a16.06,16.06,0,0,0-1.72-6.84,16,16,0,0,0-6.08-5.51,9.8,9.8,0,0,1,8.19-1.78c7.09,1.29,11.93,8.43,11.6,16.48a11.92,11.92,0,0,0-1.38-.27,2,2,0,1,0-.51,4c.08,0,8.67,1.23,10,10.1.85,5.53-.18,12.38-5.65,15-6.86,3.3-10.65-2.31-12-4.87A2,2,0,0,0,74,52.87c2.69,5.26,6.81,8.07,11.43,8.07a12.11,12.11,0,0,0,3.11-.42A14.77,14.77,0,0,1,79.88,71.7a27.43,27.43,0,0,0,.94-7.17,2,2,0,0,0-4,0A22.22,22.22,0,0,1,65.33,84.31a2,2,0,0,0,.94,3.76,1.88,1.88,0,0,0,.94-.24A25.42,25.42,0,0,0,78.09,76.47c.36-.09.72-.17,1.07-.27,10.25-3,13.35-12.21,13.67-17.58C98.89,54.63,100.11,46.72,99.12,40.3ZM54.51,11c-10,2.64-12,11.25-11,16.06a14.51,14.51,0,0,0,2.25,5.1,14.6,14.6,0,0,0-.53,3.66,25.61,25.61,0,0,0,.14,3.67,26,26,0,0,0-3,1.23A24.66,24.66,0,0,0,38,43.44,11.19,11.19,0,0,1,35.3,38.2a14.46,14.46,0,0,1,1-6.78,2,2,0,0,0-.76-2.52s-3.6-2.33-3.6-5.93a6.66,6.66,0,0,1,3.49-6,2,2,0,1,0-1.65-3.64A10.64,10.64,0,0,0,27.93,23a2.64,2.64,0,0,0,0,.28A14.45,14.45,0,0,1,23.07,25a6.44,6.44,0,0,1-4.89-1,2,2,0,0,0-2.54,3.09,10.24,10.24,0,0,0,6.22,2A11,11,0,0,0,23.71,29a18,18,0,0,0,5.23-1.71,13.19,13.19,0,0,0,3.15,4,19.34,19.34,0,0,0-.83,4.62,34.62,34.62,0,0,0-8.1,1.45,17.38,17.38,0,0,0-7.91,4.8A2,2,0,0,0,15.5,45a2,2,0,0,0,1.29.47,2,2,0,0,0,1.52-.7,13.71,13.71,0,0,1,6-3.55,30.9,30.9,0,0,1,7.24-1.28A16.1,16.1,0,0,0,35,46.1a25.59,25.59,0,0,0-4.29,6.11c-2.42,1.19-12.61,5.63-20.66.42a13.1,13.1,0,0,1-6-9.87,13.8,13.8,0,0,1,1.64-8.08,17.34,17.34,0,0,0,.81,1.62,2,2,0,0,0,3.45-2c-.05-.08-4.21-7.35-.68-13.77a13.6,13.6,0,0,1,7.76-6.33,2,2,0,0,0,1.54,2,1.8,1.8,0,0,0,.46,0A2,2,0,0,0,21,14.71a13.3,13.3,0,0,1,9.27-8.88,16,16,0,0,1,11.14.54c-.29.4-.46.68-.49.73a2,2,0,0,0,3.48,2c.14-.23,3.39-5.66,11.84-5,5.52.4,8.48,2.72,9.88,4.29a13.25,13.25,0,0,0-3,2.53A17.45,17.45,0,0,0,54.51,11Z"/><path class="cls-1" d="M73.79,64.48A19.51,19.51,0,1,0,46.26,82.27a.39.39,0,0,1,.24.36v4.89a2,2,0,0,0,2,2H60.05a2,2,0,0,0,2-2V82.63a.39.39,0,0,1,.22-.35A19.54,19.54,0,0,0,73.79,64.48ZM60.63,78.63a4.41,4.41,0,0,0-2.58,4v2.89H50.5V82.63a4.43,4.43,0,0,0-2.59-4A15.5,15.5,0,0,1,53.67,49,15.51,15.51,0,0,1,69.79,64.48,15.54,15.54,0,0,1,60.63,78.63Z"/><path class="cls-1" d="M60.05,92.61H48.5a2,2,0,0,0,0,4H60.05a2,2,0,0,0,0-4Z"/><path class="cls-1" d="M58.37,99.7H50.19a2,2,0,1,0,0,4h8.18a2,2,0,0,0,0-4Z"/><path class="cls-1" d="M54.28,71.37a2,2,0,0,0,2-2v-14a2,2,0,0,0-4,0v14A2,2,0,0,0,54.28,71.37Z"/><path class="cls-1" d="M56.59,75a2.22,2.22,0,0,0-.23-.43,2.33,2.33,0,0,0-.31-.38,2.57,2.57,0,0,0-3.54,0,2.33,2.33,0,0,0-.31.38A2.22,2.22,0,0,0,52,75a2.54,2.54,0,0,0-.14.47,2.63,2.63,0,0,0,0,.49,2.52,2.52,0,0,0,.73,1.76,2.72,2.72,0,0,0,.38.31,2.55,2.55,0,0,0,.43.23,2.84,2.84,0,0,0,.47.15,2.72,2.72,0,0,0,.49.05,2.52,2.52,0,0,0,1.77-.74,2.33,2.33,0,0,0,.31-.38,2.22,2.22,0,0,0,.23-.43,2.54,2.54,0,0,0,.14-.47,2.38,2.38,0,0,0,0-1A2.54,2.54,0,0,0,56.59,75Z"/></g></svg>