<svg xmlns="http://www.w3.org/2000/svg" viewBox="0 0 122.56 103.7"><defs><style>.cls-1{fill:#231f20;}</style></defs><g id="empathy"><path class="cls-1" d="M113.36,9.22a31.49,31.49,0,0,0-44.53,0L37.89,40.16A8.14,8.14,0,0,0,49.4,51.66L69.88,31.17a20.67,20.67,0,0,0,30.27-1.59A2,2,0,1,0,97.08,27a16.66,16.66,0,0,1-25.61,0L71.4,27l-.05-.07s-.06,0-.08-.07l-.17-.14L71,26.58l-.19-.1-.17-.07-.19-.06-.18,0-.2,0h-.18l-.2,0-.18,0-.19.05-.18.08-.17.09-.17.11-.1.07-.06.06-.07.06-21.95,22A4.14,4.14,0,1,1,40.72,43L71.66,12.05a27.49,27.49,0,0,1,38.87,38.87l-12.6,12.6a11,11,0,0,1,1.59,4.07l13.84-13.84A31.54,31.54,0,0,0,113.36,9.22Z"/><path class="cls-1" d="M67.91,37.38l-2.82,2.83,26.4,26.41a4.13,4.13,0,1,1-5.84,5.85L59.24,46.06l-2.83,2.83L82.82,75.3A4.13,4.13,0,0,1,77,81.14L50.5,54.67a11,11,0,0,1-3.73,1.92L74.14,84a4.13,4.13,0,1,1-5.84,5.85L31.91,53.43a2,2,0,1,0-2.83,2.83L65.47,92.65a4.13,4.13,0,0,1-5.85,5.84L38.41,77.28,12.05,50.92A27.49,27.49,0,0,1,50.92,12.05a2,2,0,1,0,2.83-2.83A31.49,31.49,0,0,0,9.22,53.75L35.58,80.11l21.21,21.21A8.13,8.13,0,0,0,70.65,95c.19,0,.38,0,.57,0a8.11,8.11,0,0,0,8.1-8.71,5.49,5.49,0,0,0,.58,0A8.13,8.13,0,0,0,88,78.22a5.44,5.44,0,0,0,0-.57l.57,0a8.13,8.13,0,0,0,5.75-13.88Z"/></g></svg>